<svg xmlns="http://www.w3.org/2000/svg" width="1600" height="1000" viewBox="0 0 1600 1000" role="img" aria-labelledby="title desc">
  <title id="title">AstraLab screenshot placeholder</title>
  <desc id="desc">A stylized placeholder showing a desktop aerospace simulation interface.</desc>
  <defs>
    <linearGradient id="sky" x1="0" y1="0" x2="1" y2="1">
      <stop offset="0" stop-color="#101827"/>
      <stop offset="0.55" stop-color="#1f3f4a"/>
      <stop offset="1" stop-color="#6d4b25"/>
    </linearGradient>
    <linearGradient id="panel" x1="0" y1="0" x2="0" y2="1">
      <stop offset="0" stop-color="#f8fafc"/>
      <stop offset="1" stop-color="#e7edf5"/>
    </linearGradient>
  </defs>
  <rect width="1600" height="1000" fill="url(#sky)"/>
  <path d="M0 730 C240 650 360 820 590 730 C840 630 990 760 1210 685 C1390 620 1490 630 1600 585 L1600 1000 L0 1000 Z" fill="#101827" opacity="0.58"/>
  <g transform="translate(250 150)">
    <rect width="1100" height="700" rx="22" fill="#101827" opacity="0.38"/>
    <rect x="24" y="22" width="1052" height="650" rx="18" fill="url(#panel)"/>
    <rect x="24" y="22" width="1052" height="52" rx="18" fill="#273449"/>
    <circle cx="62" cy="48" r="8" fill="#ef6b5a"/>
    <circle cx="90" cy="48" r="8" fill="#f0b84f"/>
    <circle cx="118" cy="48" r="8" fill="#53c27d"/>
    <rect x="56" y="112" width="430" height="510" rx="10" fill="#ffffff" stroke="#c9d3df"/>
    <rect x="530" y="112" width="490" height="236" rx="10" fill="#ffffff" stroke="#c9d3df"/>
    <rect x="530" y="386" width="490" height="236" rx="10" fill="#ffffff" stroke="#c9d3df"/>
    <g fill="#314057" opacity="0.9">
      <rect x="88" y="148" width="180" height="12" rx="6"/>
      <rect x="88" y="190" width="330" height="10" rx="5"/>
      <rect x="88" y="220" width="270" height="10" rx="5"/>
      <rect x="88" y="250" width="310" height="10" rx="5"/>
      <rect x="88" y="305" width="230" height="10" rx="5"/>
      <rect x="88" y="335" width="300" height="10" rx="5"/>
      <rect x="88" y="365" width="260" height="10" rx="5"/>
    </g>
    <polyline points="570,300 630,260 700,275 765,190 840,230 970,145" fill="none" stroke="#006c67" stroke-width="8" stroke-linecap="round" stroke-linejoin="round"/>
    <polyline points="570,570 640,545 720,500 810,515 900,450 980,470" fill="none" stroke="#b46b18" stroke-width="8" stroke-linecap="round" stroke-linejoin="round"/>
    <g stroke="#d5dde8" stroke-width="2">
      <line x1="570" y1="160" x2="980" y2="160"/>
      <line x1="570" y1="220" x2="980" y2="220"/>
      <line x1="570" y1="280" x2="980" y2="280"/>
      <line x1="570" y1="434" x2="980" y2="434"/>
      <line x1="570" y1="494" x2="980" y2="494"/>
      <line x1="570" y1="554" x2="980" y2="554"/>
    </g>
  </g>
</svg>
